PathFileType	4	(X/Y/Z)	c:/Users/goper/Files/vsCode/490R/osim_files/C10/C10_Slow_01.trc
DataRate	CameraRate	NumFrames	NumMarkers	Units                	OrigDataRate	OrigDataStartFrame	OrigNumFrames
250.00	250.00	5	36	mm	250.0	2560	2925
                Frame#	Time	LPSIS			LASIS			LTH1			LTH2			LTH3			LTH4			LLFE			LMFE			LSH1			LSH2			LSH3			LSH4			LLMAL			LMMAL			LCAL			LMTP5			LTOE			LMTP1			RPSIS			RASIS			RTH1			RTH2			RTH3			RTH4			RLFE			RMFE			RSH1			RSH2			RSH3			RSH4			RLMAL			RMMAL			RCAL			RMTP1			RTOE			RMTP5		
		X1	Y1	Z1	X2	Y2	Z2	X3	Y3	Z3	X4	Y4	Z4	X5	Y5	Z5	X6	Y6	Z6	X7	Y7	Z7	X8	Y8	Z8	X9	Y9	Z9	X10	Y10	Z10	X11	Y11	Z11	X12	Y12	Z12	X13	Y13	Z13	X14	Y14	Z14	X15	Y15	Z15	X16	Y16	Z16	X17	Y17	Z17	X18	Y18	Z18	X19	Y19	Z19	X20	Y20	Z20	X21	Y21	Z21	X22	Y22	Z22	X23	Y23	Z23	X24	Y24	Z24	X25	Y25	Z25	X26	Y26	Z26	X27	Y27	Z27	X28	Y28	Z28	X29	Y29	Z29	X30	Y30	Z30	X31	Y31	Z31	X32	Y32	Z32	X33	Y33	Z33	X34	Y34	Z34	X35	Y35	Z35	X36	Y36	Z36

2560	10.23600	0.00000	0.00000	0.00000	-3084.57690	973.36005	352.41025	0.00000	0.00000	0.00000	0.00000	0.00000	0.00000	-2988.84253	753.53674	391.55069	0.00000	0.00000	0.00000	-2910.23804	461.28412	205.31905	-2922.79321	471.08673	319.55469	0.00000	0.00000	0.00000	-2870.79883	394.11404	323.09592	0.00000	0.00000	0.00000	-2838.60278	360.70551	326.30447	-2653.57324	148.49155	297.91211	0.00000	0.00000	0.00000	-2562.38135	138.53445	254.72018	-2713.96094	38.97576	305.98138	0.00000	0.00000	0.00000	-2706.55469	31.02239	197.15714	-2919.97559	999.10413	132.84280	-3097.09766	984.95978	21.80231	-3187.78003	780.28864	-52.66768	0.00000	0.00000	0.00000	0.00000	0.00000	0.00000	0.00000	0.00000	0.00000	0.00000	0.00000	0.00000	-3316.71191	541.35394	169.54192	-3187.87354	380.94919	37.14722	-3160.73901	352.92303	43.63766	0.00000	0.00000	0.00000	0.00000	0.00000	0.00000	-3248.75293	89.07268	89.45770	-3266.08154	102.35475	169.31186	-3188.04492	49.23071	131.90388	0.00000	0.00000	0.00000	0.00000	0.00000	0.00000	-3371.17505	38.66109	60.32701
2561	10.24000	0.00000	0.00000	0.00000	-3090.95581	973.40375	351.49283	-3187.08423	343.77441	37.87599	-3148.29907	369.42618	35.14177	0.00000	0.00000	0.00000	0.00000	0.00000	0.00000	-2918.43213	460.58224	205.28806	-2930.81958	470.64905	319.41693	0.00000	0.00000	0.00000	-2877.84985	394.00323	323.20969	0.00000	0.00000	0.00000	-2845.13281	361.01276	326.51321	-2657.17725	150.74989	298.45862	0.00000	0.00000	0.00000	-2565.96289	142.89378	254.60248	-2714.48975	39.39692	305.90771	-2763.01025	23.90869	228.85037	-2707.04175	31.40606	197.12192	-2934.78638	995.39838	135.41859	-3101.68042	986.54755	21.16285	-3192.57983	780.85840	-54.13109	0.00000	0.00000	0.00000	0.00000	0.00000	0.00000	0.00000	0.00000	0.00000	-3226.22217	463.92645	-34.73468	0.00000	0.00000	0.00000	-3190.32129	381.17474	36.13916	-3163.68018	352.94058	42.66541	0.00000	0.00000	0.00000	0.00000	0.00000	0.00000	-3249.36328	88.93195	89.22669	-3266.74780	102.29282	169.08791	0.00000	0.00000	0.00000	0.00000	0.00000	0.00000	0.00000	0.00000	0.00000	-3371.52344	38.07904	60.18325
2562	10.24400	0.00000	0.00000	0.00000	-3096.95020	973.39270	350.64886	0.00000	0.00000	0.00000	-3150.44116	369.36884	34.16146	0.00000	0.00000	0.00000	0.00000	0.00000	0.00000	-2926.93359	459.75336	205.32668	-2938.89136	470.19983	319.38052	0.00000	0.00000	0.00000	-2884.98779	393.80444	323.38403	0.00000	0.00000	0.00000	-2851.89136	361.36301	326.80688	-2661.11890	153.02013	298.97665	0.00000	0.00000	0.00000	-2569.96509	147.37006	254.61389	-2715.17871	39.95524	305.82455	-2763.60254	23.92195	228.89056	-2707.68726	31.94557	197.10381	-2940.01147	996.22498	135.88986	-3106.02759	988.06213	20.42529	-3197.22974	781.12097	-55.72301	0.00000	0.00000	0.00000	0.00000	0.00000	0.00000	0.00000	0.00000	0.00000	-3229.23682	464.11868	-36.23784	0.00000	0.00000	0.00000	-3192.61523	381.37314	35.16835	-3166.36792	352.80920	41.73089	0.00000	0.00000	0.00000	0.00000	0.00000	0.00000	-3249.83765	88.86705	89.14934	-3267.22510	102.19133	168.98085	0.00000	0.00000	0.00000	0.00000	0.00000	0.00000	-3405.74097	25.34513	142.50285	-3371.78662	37.79058	60.22147
2563	10.24800	0.00000	0.00000	0.00000	-3103.17822	973.66260	349.68146	-3191.55640	343.76538	36.22975	-3152.34399	369.29800	33.23851	0.00000	0.00000	0.00000	0.00000	0.00000	0.00000	-2935.64697	458.80231	205.38968	-2946.26270	469.41937	320.59439	0.00000	0.00000	0.00000	0.00000	0.00000	0.00000	0.00000	0.00000	0.00000	0.00000	0.00000	0.00000	-2665.27319	155.41478	299.48993	0.00000	0.00000	0.00000	-2573.72949	151.94934	254.58249	-2716.06372	40.77485	305.70145	0.00000	0.00000	0.00000	-2708.40723	32.63624	197.09328	-2945.28638	996.98645	136.37570	-3110.42212	989.57867	19.60536	0.00000	0.00000	0.00000	0.00000	0.00000	0.00000	-3104.97681	727.70911	-24.51124	-3121.60254	685.52844	-19.55011	-3232.03223	464.29077	-37.70607	-3146.06885	409.13971	14.87939	-3194.64331	381.47556	34.27213	-3168.86230	352.65656	40.80398	0.00000	0.00000	0.00000	0.00000	0.00000	0.00000	-3250.16309	88.80480	89.10339	-3267.54810	102.06439	168.94371	0.00000	0.00000	0.00000	0.00000	0.00000	0.00000	-3405.78589	24.55405	142.20807	-3371.98193	37.69753	60.38892
2564	10.25200	0.00000	0.00000	0.00000	-3109.19092	973.93964	348.79379	-3193.43481	343.72379	35.49833	-3154.10522	369.21811	32.40918	0.00000	0.00000	0.00000	0.00000	0.00000	0.00000	-2944.64478	457.81866	205.58295	-2954.77124	468.98117	320.54224	0.00000	0.00000	0.00000	-2853.15186	433.30447	332.49802	0.00000	0.00000	0.00000	-2813.74829	400.52130	320.59732	-2669.67554	157.92784	299.91467	0.00000	0.00000	0.00000	-2578.62207	156.45033	254.74765	-2716.91016	41.58812	305.64630	0.00000	0.00000	0.00000	-2709.23877	33.51817	197.10635	-2950.55811	997.75336	136.84277	-3114.63672	990.94916	18.78068	0.00000	0.00000	0.00000	0.00000	0.00000	0.00000	-3109.27393	727.67065	-25.87429	-3125.54712	685.48444	-20.81668	-3234.69287	464.38016	-39.01981	0.00000	0.00000	0.00000	-3196.55640	381.60123	33.43278	-3171.10522	352.48206	40.02087	0.00000	0.00000	0.00000	0.00000	0.00000	0.00000	-3250.41357	88.76395	89.10826	-3267.78906	101.98235	168.90521	0.00000	0.00000	0.00000	0.00000	0.00000	0.00000	-3405.89771	23.95354	142.10506	-3372.10938	37.64431	60.55149
